<svg width="40" height="41" viewBox="0 0 40 41" fill="none" xmlns="http://www.w3.org/2000/svg">
<rect x="0.5" y="1" width="39" height="39" rx="19.5" stroke="#E4E5E9"/>
<path opacity="0.4" d="M27.7092 15.8801V18.4834L15.7833 27.2284L13.3725 25.4226C12.7767 24.9734 12.2908 24.0109 12.2908 23.2684V15.8801C12.2908 14.8534 13.0792 13.7167 14.0417 13.3592L19.0558 11.4801C19.5783 11.2876 20.4217 11.2876 20.9442 11.4801L25.9583 13.3592C26.9208 13.7167 27.7092 14.8534 27.7092 15.8801Z" fill="#030504"/>
<path d="M27.7091 19.7393V23.2684C27.7091 24.0109 27.2233 24.9734 26.6275 25.4226L21.6133 29.1718C21.1733 29.5018 20.5866 29.6668 20 29.6668C19.4133 29.6668 18.8266 29.5018 18.3866 29.1718L16.6266 27.8609L27.7091 19.7393Z" fill="#030504"/>
</svg>
