<svg width="71" height="70" viewBox="0 0 71 70" fill="none" xmlns="http://www.w3.org/2000/svg">
<path d="M64.6667 17.5V24.5583C64.6667 29.1667 61.7501 32.0833 57.1417 32.0833H47.1667V11.6958C47.1667 8.45833 49.8209 5.83333 53.0584 5.83333C56.2376 5.8625 59.1543 7.14583 61.2543 9.24583C63.3542 11.375 64.6667 14.2917 64.6667 17.5Z" fill="white"/>
<path opacity="0.4" d="M6.33325 20.4167V61.25C6.33325 63.6708 9.07494 65.0417 10.9999 63.5833L15.9874 59.85C17.1541 58.975 18.7874 59.0917 19.8374 60.1417L24.6791 65.0125C25.8166 66.15 27.6833 66.15 28.8208 65.0125L33.7208 60.1125C34.7416 59.0917 36.3749 58.975 37.5124 59.85L42.4999 63.5833C44.4249 65.0125 47.1666 63.6417 47.1666 61.25V11.6667C47.1666 8.45833 49.7916 5.83333 52.9999 5.83333H20.9166H17.9999C9.24992 5.83333 6.33325 11.0542 6.33325 17.5V20.4167Z" fill="white"/>
<path d="M35.5 28.4375H18C16.8042 28.4375 15.8125 27.4458 15.8125 26.25C15.8125 25.0542 16.8042 24.0625 18 24.0625H35.5C36.6958 24.0625 37.6875 25.0542 37.6875 26.25C37.6875 27.4458 36.6958 28.4375 35.5 28.4375Z" fill="white"/>
<path d="M33.3125 40.1042H20.1875C18.9917 40.1042 18 39.1125 18 37.9167C18 36.7208 18.9917 35.7292 20.1875 35.7292H33.3125C34.5083 35.7292 35.5 36.7208 35.5 37.9167C35.5 39.1125 34.5083 40.1042 33.3125 40.1042Z" fill="white"/>
</svg>
