<svg width="51" height="50" viewBox="0 0 51 50" fill="none" xmlns="http://www.w3.org/2000/svg">
<path d="M46.3334 12.5001V17.5417C46.3334 20.8334 44.25 22.9167 40.9584 22.9167H33.8334V8.35425C33.8334 6.04175 35.7292 4.16675 38.0417 4.16675C40.3125 4.18758 42.3959 5.10425 43.8959 6.60425C45.3959 8.12508 46.3334 10.2084 46.3334 12.5001Z" fill="#030504"/>
<path opacity="0.4" d="M4.66663 14.5834V43.7501C4.66663 45.4792 6.62497 46.4584 7.99997 45.4167L11.5625 42.7501C12.3958 42.1251 13.5625 42.2084 14.3125 42.9584L17.7708 46.4376C18.5833 47.2501 19.9166 47.2501 20.7291 46.4376L24.2291 42.9376C24.9583 42.2084 26.125 42.1251 26.9375 42.7501L30.4999 45.4167C31.8749 46.4376 33.8333 45.4584 33.8333 43.7501V8.33341C33.8333 6.04175 35.7083 4.16675 38 4.16675H15.0833H13C6.74996 4.16675 4.66663 7.89591 4.66663 12.5001V14.5834Z" fill="#030504"/>
<path d="M25.5 20.3125H13C12.1458 20.3125 11.4375 19.6042 11.4375 18.75C11.4375 17.8958 12.1458 17.1875 13 17.1875H25.5C26.3542 17.1875 27.0625 17.8958 27.0625 18.75C27.0625 19.6042 26.3542 20.3125 25.5 20.3125Z" fill="#030504"/>
<path d="M23.9375 28.6458H14.5625C13.7083 28.6458 13 27.9374 13 27.0833C13 26.2291 13.7083 25.5208 14.5625 25.5208H23.9375C24.7917 25.5208 25.5 26.2291 25.5 27.0833C25.5 27.9374 24.7917 28.6458 23.9375 28.6458Z" fill="#030504"/>
</svg>
