<svg width="23" height="22" viewBox="0 0 23 22" fill="none" xmlns="http://www.w3.org/2000/svg">
<path d="M20.8335 5.49992V7.71825C20.8335 9.16659 19.9168 10.0833 18.4685 10.0833H15.3335V3.67575C15.3335 2.65825 16.1677 1.83325 17.1852 1.83325C18.1843 1.84242 19.101 2.24575 19.761 2.90575C20.421 3.57492 20.8335 4.49159 20.8335 5.49992Z" fill="white"/>
<path opacity="0.4" d="M2.5 6.41659V19.2499C2.5 20.0108 3.36167 20.4416 3.96667 19.9833L5.53416 18.8099C5.90083 18.5349 6.41417 18.5716 6.74417 18.9016L8.26583 20.4324C8.62333 20.7899 9.21001 20.7899 9.56751 20.4324L11.1075 18.8924C11.4283 18.5716 11.9417 18.5349 12.2992 18.8099L13.8667 19.9833C14.4717 20.4324 15.3333 20.0016 15.3333 19.2499V3.66659C15.3333 2.65825 16.1583 1.83325 17.1667 1.83325H7.08333H6.16667C3.41667 1.83325 2.5 3.47409 2.5 5.49992V6.41659Z" fill="white"/>
<path d="M11.6667 8.9375H6.16675C5.79091 8.9375 5.47925 8.62583 5.47925 8.25C5.47925 7.87417 5.79091 7.5625 6.16675 7.5625H11.6667C12.0426 7.5625 12.3542 7.87417 12.3542 8.25C12.3542 8.62583 12.0426 8.9375 11.6667 8.9375Z" fill="white"/>
<path d="M10.9792 12.6042H6.85425C6.47841 12.6042 6.16675 12.2926 6.16675 11.9167C6.16675 11.5409 6.47841 11.2292 6.85425 11.2292H10.9792C11.3551 11.2292 11.6667 11.5409 11.6667 11.9167C11.6667 12.2926 11.3551 12.6042 10.9792 12.6042Z" fill="white"/>
</svg>
