<svg width="33" height="32" viewBox="0 0 33 32" fill="none" xmlns="http://www.w3.org/2000/svg">
<path d="M9.83337 7.66666C9.28671 7.66666 8.83337 7.21332 8.83337 6.66666V2.66666C8.83337 2.11999 9.28671 1.66666 9.83337 1.66666C10.38 1.66666 10.8334 2.11999 10.8334 2.66666V6.66666C10.8334 7.21332 10.38 7.66666 9.83337 7.66666Z" fill="#D04B1E"/>
<path d="M20.5 7.66666C19.9533 7.66666 19.5 7.21332 19.5 6.66666V2.66666C19.5 2.11999 19.9533 1.66666 20.5 1.66666C21.0467 1.66666 21.5 2.11999 21.5 2.66666V6.66666C21.5 7.21332 21.0467 7.66666 20.5 7.66666Z" fill="#D04B1E"/>
<path opacity="0.4" d="M27.1666 11.3333V22.6667C27.1666 26.6667 25.1666 29.3333 20.5 29.3333H9.83329C5.16663 29.3333 3.16663 26.6667 3.16663 22.6667V11.3333C3.16663 7.33332 5.16663 4.66666 9.83329 4.66666H20.5C25.1666 4.66666 27.1666 7.33332 27.1666 11.3333Z" fill="#D04B1E"/>
<path d="M17.8334 15.6667H9.83337C9.28671 15.6667 8.83337 15.2133 8.83337 14.6667C8.83337 14.12 9.28671 13.6667 9.83337 13.6667H17.8334C18.38 13.6667 18.8334 14.12 18.8334 14.6667C18.8334 15.2133 18.38 15.6667 17.8334 15.6667Z" fill="#D04B1E"/>
<path d="M13.8334 22.3333H9.83337C9.28671 22.3333 8.83337 21.88 8.83337 21.3333C8.83337 20.7867 9.28671 20.3333 9.83337 20.3333H13.8334C14.38 20.3333 14.8334 20.7867 14.8334 21.3333C14.8334 21.88 14.38 22.3333 13.8334 22.3333Z" fill="#D04B1E"/>
<path d="M28.5 18.1733C27.3133 17.2267 25.8066 16.6667 24.1666 16.6667C22.5266 16.6667 20.9933 17.24 19.7933 18.2133C18.18 19.48 17.1666 21.4667 17.1666 23.6667C17.1666 24.9733 17.54 26.2267 18.18 27.2667C18.6733 28.08 19.3133 28.7867 20.0733 29.3333C21.2199 30.1733 22.6333 30.6667 24.1666 30.6667C25.94 30.6667 27.54 30.0133 28.7666 28.92C29.3133 28.4667 29.7799 27.9067 30.1533 27.2667C30.7933 26.2267 31.1666 24.9733 31.1666 23.6667C31.1666 21.44 30.1266 19.4533 28.5 18.1733ZM24.1666 27C24.1666 25.16 22.6733 23.6667 20.8333 23.6667C22.6733 23.6667 24.1666 22.1733 24.1666 20.3333C24.1666 22.1733 25.66 23.6667 27.5 23.6667C25.66 23.6667 24.1666 25.16 24.1666 27Z" fill="#D04B1E"/>
</svg>
